<svg xmlns="http://www.w3.org/2000/svg" viewBox="0 0 32 48">
  <rect width="32" height="48" rx="6" fill="#0f0f0d"/>
  <circle cx="17.6" cy="4.0" r="0.18" fill="#7d9b76" opacity="0.03"/>
  <circle cx="19.8" cy="4.0" r="0.36" fill="#7d9b76" opacity="0.13"/>
  <circle cx="22.0" cy="4.0" r="0.55" fill="#7d9b76" opacity="0.30"/>
  <circle cx="24.2" cy="4.0" r="0.74" fill="#7d9b76" opacity="0.54"/>
  <circle cx="26.4" cy="4.0" r="0.92" fill="#7d9b76" opacity="0.85"/>
  <circle cx="28.6" cy="4.0" r="0.74" fill="#7d9b76" opacity="0.54"/>
  <circle cx="30.8" cy="4.0" r="0.55" fill="#7d9b76" opacity="0.30"/>
  <circle cx="17.6" cy="6.2" r="0.22" fill="#7d9b76" opacity="0.05"/>
  <circle cx="19.8" cy="6.2" r="0.41" fill="#7d9b76" opacity="0.17"/>
  <circle cx="22.0" cy="6.2" r="0.60" fill="#7d9b76" opacity="0.35"/>
  <circle cx="24.2" cy="6.2" r="0.78" fill="#7d9b76" opacity="0.61"/>
  <circle cx="26.4" cy="6.2" r="0.88" fill="#7d9b76" opacity="0.77"/>
  <circle cx="28.6" cy="6.2" r="0.69" fill="#7d9b76" opacity="0.48"/>
  <circle cx="30.8" cy="6.2" r="0.51" fill="#7d9b76" opacity="0.25"/>
  <circle cx="17.6" cy="8.4" r="0.30" fill="#7d9b76" opacity="0.09"/>
  <circle cx="19.8" cy="8.4" r="0.49" fill="#7d9b76" opacity="0.24"/>
  <circle cx="22.0" cy="8.4" r="0.68" fill="#7d9b76" opacity="0.46"/>
  <circle cx="24.2" cy="8.4" r="0.87" fill="#7d9b76" opacity="0.75"/>
  <circle cx="26.4" cy="8.4" r="0.80" fill="#7d9b76" opacity="0.63"/>
  <circle cx="28.6" cy="8.4" r="0.61" fill="#7d9b76" opacity="0.37"/>
  <circle cx="30.8" cy="8.4" r="0.42" fill="#7d9b76" opacity="0.18"/>
  <circle cx="15.4" cy="10.6" r="0.27" fill="#7d9b76" opacity="0.07"/>
  <circle cx="17.6" cy="10.6" r="0.45" fill="#7d9b76" opacity="0.20"/>
  <circle cx="19.8" cy="10.6" r="0.64" fill="#7d9b76" opacity="0.41"/>
  <circle cx="22.0" cy="10.6" r="0.83" fill="#7d9b76" opacity="0.68"/>
  <circle cx="24.2" cy="10.6" r="0.83" fill="#7d9b76" opacity="0.69"/>
  <circle cx="26.4" cy="10.6" r="0.65" fill="#7d9b76" opacity="0.42"/>
  <circle cx="28.6" cy="10.6" r="0.46" fill="#7d9b76" opacity="0.21"/>
  <circle cx="30.8" cy="10.6" r="0.27" fill="#7d9b76" opacity="0.07"/>
  <circle cx="13.2" cy="12.8" r="0.32" fill="#7d9b76" opacity="0.10"/>
  <circle cx="15.4" cy="12.8" r="0.50" fill="#7d9b76" opacity="0.25"/>
  <circle cx="17.6" cy="12.8" r="0.69" fill="#7d9b76" opacity="0.47"/>
  <circle cx="19.8" cy="12.8" r="0.88" fill="#7d9b76" opacity="0.76"/>
  <circle cx="22.0" cy="12.8" r="0.78" fill="#7d9b76" opacity="0.61"/>
  <circle cx="24.2" cy="12.8" r="0.60" fill="#7d9b76" opacity="0.36"/>
  <circle cx="26.4" cy="12.8" r="0.41" fill="#7d9b76" opacity="0.17"/>
  <circle cx="28.6" cy="12.8" r="0.22" fill="#7d9b76" opacity="0.05"/>
  <circle cx="8.8" cy="15.0" r="0.24" fill="#7d9b76" opacity="0.06"/>
  <circle cx="11.0" cy="15.0" r="0.43" fill="#7d9b76" opacity="0.18"/>
  <circle cx="13.2" cy="15.0" r="0.61" fill="#7d9b76" opacity="0.38"/>
  <circle cx="15.4" cy="15.0" r="0.80" fill="#7d9b76" opacity="0.64"/>
  <circle cx="17.6" cy="15.0" r="0.86" fill="#7d9b76" opacity="0.74"/>
  <circle cx="19.8" cy="15.0" r="0.67" fill="#7d9b76" opacity="0.45"/>
  <circle cx="22.0" cy="15.0" r="0.49" fill="#7d9b76" opacity="0.24"/>
  <circle cx="24.2" cy="15.0" r="0.30" fill="#7d9b76" opacity="0.09"/>
  <circle cx="6.6" cy="17.2" r="0.32" fill="#7d9b76" opacity="0.10"/>
  <circle cx="8.8" cy="17.2" r="0.51" fill="#7d9b76" opacity="0.25"/>
  <circle cx="11.0" cy="17.2" r="0.69" fill="#7d9b76" opacity="0.48"/>
  <circle cx="13.2" cy="17.2" r="0.88" fill="#7d9b76" opacity="0.77"/>
  <circle cx="15.4" cy="17.2" r="0.78" fill="#7d9b76" opacity="0.61"/>
  <circle cx="17.6" cy="17.2" r="0.60" fill="#7d9b76" opacity="0.35"/>
  <circle cx="19.8" cy="17.2" r="0.41" fill="#7d9b76" opacity="0.17"/>
  <circle cx="22.0" cy="17.2" r="0.22" fill="#7d9b76" opacity="0.05"/>
  <circle cx="4.4" cy="19.4" r="0.25" fill="#7d9b76" opacity="0.06"/>
  <circle cx="6.6" cy="19.4" r="0.44" fill="#7d9b76" opacity="0.19"/>
  <circle cx="8.8" cy="19.4" r="0.62" fill="#7d9b76" opacity="0.39"/>
  <circle cx="11.0" cy="19.4" r="0.81" fill="#7d9b76" opacity="0.65"/>
  <circle cx="13.2" cy="19.4" r="0.85" fill="#7d9b76" opacity="0.72"/>
  <circle cx="15.4" cy="19.4" r="0.66" fill="#7d9b76" opacity="0.44"/>
  <circle cx="17.6" cy="19.4" r="0.48" fill="#7d9b76" opacity="0.23"/>
  <circle cx="19.8" cy="19.4" r="0.29" fill="#7d9b76" opacity="0.08"/>
  <circle cx="4.4" cy="21.6" r="0.17" fill="#7d9b76" opacity="0.03"/>
  <circle cx="6.6" cy="21.6" r="0.36" fill="#7d9b76" opacity="0.13"/>
  <circle cx="8.8" cy="21.6" r="0.55" fill="#7d9b76" opacity="0.30"/>
  <circle cx="11.0" cy="21.6" r="0.73" fill="#7d9b76" opacity="0.54"/>
  <circle cx="13.2" cy="21.6" r="0.92" fill="#7d9b76" opacity="0.85"/>
  <circle cx="15.4" cy="21.6" r="0.74" fill="#7d9b76" opacity="0.54"/>
  <circle cx="17.6" cy="21.6" r="0.55" fill="#7d9b76" opacity="0.30"/>
  <circle cx="19.8" cy="21.6" r="0.37" fill="#7d9b76" opacity="0.13"/>
  <circle cx="22.0" cy="21.6" r="0.18" fill="#7d9b76" opacity="0.03"/>
  <circle cx="8.8" cy="23.8" r="0.33" fill="#7d9b76" opacity="0.11"/>
  <circle cx="11.0" cy="23.8" r="0.52" fill="#7d9b76" opacity="0.26"/>
  <circle cx="13.2" cy="23.8" r="0.70" fill="#7d9b76" opacity="0.49"/>
  <circle cx="15.4" cy="23.8" r="0.89" fill="#7d9b76" opacity="0.79"/>
  <circle cx="17.6" cy="23.8" r="0.77" fill="#7d9b76" opacity="0.59"/>
  <circle cx="19.8" cy="23.8" r="0.59" fill="#7d9b76" opacity="0.34"/>
  <circle cx="22.0" cy="23.8" r="0.40" fill="#7d9b76" opacity="0.16"/>
  <circle cx="24.2" cy="23.8" r="0.21" fill="#7d9b76" opacity="0.04"/>
  <circle cx="11.0" cy="26.0" r="0.28" fill="#d4a853" opacity="0.08"/>
  <circle cx="13.2" cy="26.0" r="0.47" fill="#d4a853" opacity="0.22"/>
  <circle cx="15.4" cy="26.0" r="0.66" fill="#d4a853" opacity="0.43"/>
  <circle cx="17.6" cy="26.0" r="0.84" fill="#d4a853" opacity="0.71"/>
  <circle cx="19.8" cy="26.0" r="0.82" fill="#d4a853" opacity="0.67"/>
  <circle cx="22.0" cy="26.0" r="0.63" fill="#d4a853" opacity="0.40"/>
  <circle cx="24.2" cy="26.0" r="0.45" fill="#d4a853" opacity="0.20"/>
  <circle cx="26.4" cy="26.0" r="0.26" fill="#d4a853" opacity="0.07"/>
  <circle cx="11.0" cy="28.2" r="0.17" fill="#d4a853" opacity="0.03"/>
  <circle cx="13.2" cy="28.2" r="0.36" fill="#d4a853" opacity="0.13"/>
  <circle cx="15.4" cy="28.2" r="0.55" fill="#d4a853" opacity="0.30"/>
  <circle cx="17.6" cy="28.2" r="0.73" fill="#d4a853" opacity="0.53"/>
  <circle cx="19.8" cy="28.2" r="0.92" fill="#d4a853" opacity="0.84"/>
  <circle cx="22.0" cy="28.2" r="0.74" fill="#d4a853" opacity="0.55"/>
  <circle cx="24.2" cy="28.2" r="0.55" fill="#d4a853" opacity="0.31"/>
  <circle cx="26.4" cy="28.2" r="0.37" fill="#d4a853" opacity="0.13"/>
  <circle cx="28.6" cy="28.2" r="0.18" fill="#d4a853" opacity="0.03"/>
  <circle cx="11.0" cy="30.4" r="0.25" fill="#d4a853" opacity="0.06"/>
  <circle cx="13.2" cy="30.4" r="0.44" fill="#d4a853" opacity="0.19"/>
  <circle cx="15.4" cy="30.4" r="0.63" fill="#d4a853" opacity="0.39"/>
  <circle cx="17.6" cy="30.4" r="0.81" fill="#d4a853" opacity="0.66"/>
  <circle cx="19.8" cy="30.4" r="0.85" fill="#d4a853" opacity="0.71"/>
  <circle cx="22.0" cy="30.4" r="0.66" fill="#d4a853" opacity="0.43"/>
  <circle cx="24.2" cy="30.4" r="0.47" fill="#d4a853" opacity="0.22"/>
  <circle cx="26.4" cy="30.4" r="0.29" fill="#d4a853" opacity="0.08"/>
  <circle cx="8.8" cy="32.6" r="0.31" fill="#d4a853" opacity="0.09"/>
  <circle cx="11.0" cy="32.6" r="0.49" fill="#d4a853" opacity="0.24"/>
  <circle cx="13.2" cy="32.6" r="0.68" fill="#d4a853" opacity="0.46"/>
  <circle cx="15.4" cy="32.6" r="0.87" fill="#d4a853" opacity="0.75"/>
  <circle cx="17.6" cy="32.6" r="0.79" fill="#d4a853" opacity="0.63"/>
  <circle cx="19.8" cy="32.6" r="0.61" fill="#d4a853" opacity="0.37"/>
  <circle cx="22.0" cy="32.6" r="0.42" fill="#d4a853" opacity="0.18"/>
  <circle cx="24.2" cy="32.6" r="0.23" fill="#d4a853" opacity="0.05"/>
  <circle cx="4.4" cy="34.8" r="0.23" fill="#d4a853" opacity="0.05"/>
  <circle cx="6.6" cy="34.8" r="0.42" fill="#d4a853" opacity="0.17"/>
  <circle cx="8.8" cy="34.8" r="0.60" fill="#d4a853" opacity="0.36"/>
  <circle cx="11.0" cy="34.8" r="0.79" fill="#d4a853" opacity="0.62"/>
  <circle cx="13.2" cy="34.8" r="0.87" fill="#d4a853" opacity="0.76"/>
  <circle cx="15.4" cy="34.8" r="0.68" fill="#d4a853" opacity="0.47"/>
  <circle cx="17.6" cy="34.8" r="0.50" fill="#d4a853" opacity="0.25"/>
  <circle cx="19.8" cy="34.8" r="0.31" fill="#d4a853" opacity="0.10"/>
  <circle cx="2.2" cy="37.0" r="0.29" fill="#d4a853" opacity="0.08"/>
  <circle cx="4.4" cy="37.0" r="0.48" fill="#d4a853" opacity="0.23"/>
  <circle cx="6.6" cy="37.0" r="0.66" fill="#d4a853" opacity="0.44"/>
  <circle cx="8.8" cy="37.0" r="0.85" fill="#d4a853" opacity="0.72"/>
  <circle cx="11.0" cy="37.0" r="0.81" fill="#d4a853" opacity="0.66"/>
  <circle cx="13.2" cy="37.0" r="0.63" fill="#d4a853" opacity="0.39"/>
  <circle cx="15.4" cy="37.0" r="0.44" fill="#d4a853" opacity="0.19"/>
  <circle cx="17.6" cy="37.0" r="0.25" fill="#d4a853" opacity="0.06"/>
  <circle cx="0.0" cy="39.2" r="0.26" fill="#d4a853" opacity="0.07"/>
  <circle cx="2.2" cy="39.2" r="0.45" fill="#d4a853" opacity="0.20"/>
  <circle cx="4.4" cy="39.2" r="0.63" fill="#d4a853" opacity="0.40"/>
  <circle cx="6.6" cy="39.2" r="0.82" fill="#d4a853" opacity="0.67"/>
  <circle cx="8.8" cy="39.2" r="0.84" fill="#d4a853" opacity="0.70"/>
  <circle cx="11.0" cy="39.2" r="0.65" fill="#d4a853" opacity="0.42"/>
  <circle cx="13.2" cy="39.2" r="0.47" fill="#d4a853" opacity="0.22"/>
  <circle cx="15.4" cy="39.2" r="0.28" fill="#d4a853" opacity="0.08"/>
  <circle cx="0.0" cy="41.4" r="0.35" fill="#d4a853" opacity="0.12"/>
  <circle cx="2.2" cy="41.4" r="0.54" fill="#d4a853" opacity="0.29"/>
  <circle cx="4.4" cy="41.4" r="0.72" fill="#d4a853" opacity="0.52"/>
  <circle cx="6.6" cy="41.4" r="0.91" fill="#d4a853" opacity="0.83"/>
  <circle cx="8.8" cy="41.4" r="0.75" fill="#d4a853" opacity="0.56"/>
  <circle cx="11.0" cy="41.4" r="0.56" fill="#d4a853" opacity="0.32"/>
  <circle cx="13.2" cy="41.4" r="0.38" fill="#d4a853" opacity="0.14"/>
  <circle cx="15.4" cy="41.4" r="0.19" fill="#d4a853" opacity="0.04"/>
  <circle cx="0.0" cy="43.6" r="0.40" fill="#d4a853" opacity="0.16"/>
  <circle cx="2.2" cy="43.6" r="0.58" fill="#d4a853" opacity="0.34"/>
  <circle cx="4.4" cy="43.6" r="0.77" fill="#d4a853" opacity="0.59"/>
  <circle cx="6.6" cy="43.6" r="0.89" fill="#d4a853" opacity="0.79"/>
  <circle cx="8.8" cy="43.6" r="0.70" fill="#d4a853" opacity="0.49"/>
  <circle cx="11.0" cy="43.6" r="0.52" fill="#d4a853" opacity="0.27"/>
  <circle cx="13.2" cy="43.6" r="0.33" fill="#d4a853" opacity="0.11"/>
</svg>